<svg xmlns="http://www.w3.org/2000/svg" width="128" height="128" viewBox="0 0 128 128">
  <defs>
    <linearGradient id="grad" x1="0%" y1="0%" x2="100%" y2="100%">
      <stop offset="0%" style="stop-color:#667eea"/>
      <stop offset="100%" style="stop-color:#764ba2"/>
    </linearGradient>
    <filter id="shadow" x="-20%" y="-20%" width="140%" height="140%">
      <feDropShadow dx="0" dy="4" stdDeviation="8" flood-opacity="0.3"/>
    </filter>
  </defs>
  <rect width="128" height="128" rx="24" fill="url(#grad)"/>
  <g filter="url(#shadow)">
    <rect x="18" y="30" width="92" height="60" rx="6" fill="white"/>
  </g>
  <rect x="24" y="38" width="28" height="34" rx="4" fill="#667eea"/>
  <circle cx="38" cy="48" r="8" fill="white" opacity="0.8"/>
  <rect x="32" y="60" width="12" height="6" rx="1" fill="white" opacity="0.6"/>
  <rect x="58" y="40" width="46" height="4" rx="2" fill="#e0e0e0"/>
  <rect x="58" y="50" width="36" height="3" rx="1.5" fill="#eee"/>
  <rect x="58" y="58" width="28" height="3" rx="1.5" fill="#eee"/>
  <rect x="58" y="66" width="40" height="3" rx="1.5" fill="#eee"/>
  <rect x="58" y="74" width="32" height="3" rx="1.5" fill="#eee"/>
  <rect x="18" y="96" width="92" height="8" rx="2" fill="white" opacity="0.3"/>
  <text x="64" y="102" font-family="monospace" font-size="6" fill="white" text-anchor="middle" font-weight="bold">CLOUDBEDS ID SCANNER</text>
</svg>
